<?xml version="1.0" encoding="utf-8"?>
<!-- Generator: Adobe Illustrator 19.0.0, SVG Export Plug-In . SVG Version: 6.00 Build 0)  -->
<svg version="1.1" id="Layer_4" xmlns="http://www.w3.org/2000/svg" xmlns:xlink="http://www.w3.org/1999/xlink" x="0px" y="0px"
	 viewBox="0 0 4786.5 1024" style="enable-background:new 0 0 4786.5 1024;" xml:space="preserve">
<style type="text/css">
	.st0{fill:#254357;}
	.st1{fill:#FFFFFF;}
	.st2{fill:#FCFCFC;}
</style>
<g id="XMLID_1_">
	<path id="XMLID_9_" class="st0" d="M595.8,50.8c92.9,217.9,185,428.7,276.5,632.4l97.5-632.4H595.8z"/>
	<path id="XMLID_15_" class="st1" d="M336.2,599.4H512h175.8l-6.2-12.3c-2.9-6.8-59.5-144.3-169.7-412.4
		C401.8,442.8,345.2,580.3,342.3,587.1L336.2,599.4z"/>
	<path id="XMLID_17_" class="st0" d="M54.2,50.8l97.5,632.4c91.5-203.7,183.6-414.5,276.5-632.4H54.2z"/>
	<g id="XMLID_8_">
		<path id="XMLID_10_" class="st1" d="M463,727.5c-2.4-0.8-5.3-1.4-8.7-1.8c-3.5-0.4-7.7-0.6-12.8-0.6h-13.9v40.7
			c1.4,0.2,3.2,0.4,5.4,0.5c2.2,0.1,4.5,0.2,6.8,0.2c6.7,0,12.2-0.5,16.7-1.6c4.5-1.1,8.1-2.6,10.9-4.5c2.8-1.9,4.7-4.2,5.9-7
			s1.8-5.7,1.8-8.9c0-4-0.9-7.4-2.7-10.3C470.6,731.4,467.5,729.1,463,727.5z"/>
		<path id="XMLID_16_" class="st1" d="M712.5,659.6H512H311.5c-13.3,33.1-29.1,73.2-47.5,120.4l248,193.2L760,780
			C741.7,732.8,725.8,692.7,712.5,659.6z M496.7,762.6c-2.7,5.2-6.6,9.6-11.8,13.3c-5.2,3.6-11.5,6.4-19,8.4c-7.5,2-16,2.9-25.7,2.9
			c-2.2,0-4.4,0-6.6-0.1c-2.2-0.1-4.2-0.2-6-0.4v52.7h-24.7V704.5h38.9c6.5,0,12.2,0.3,17.1,0.9c4.9,0.6,9.2,1.4,13.1,2.6
			c9.2,2.8,16.3,7.3,21.3,13.5c5,6.2,7.5,14.1,7.5,23.6C500.7,751.6,499.3,757.4,496.7,762.6z M606.6,839.4L552,778.5h-0.4v60.9
			h-24.7V704.5h24.7v61.4h0.4l50.9-61.4h30.7l-56.3,66.9l60.9,68.1H606.6z"/>
	</g>
</g>
<g id="XMLID_2_">
	<path id="XMLID_3_" class="st2" d="M1549.5,614.7h-191.2l-49.7,129.4h-99l201.5-507.6h85l201.5,507.6h-98.3L1549.5,614.7z
		 M1453.2,358.6c-17.7,53.1-33.6,97.5-47.5,133.1l-17.4,45.2h131.2l-17.4-45.2c-13.8-36-29.6-80.3-47.5-133.1H1453.2z"/>
	<path id="XMLID_6_" class="st2" d="M1910,547.6c-8.3,0-16.6-0.1-24.7-0.4c-8.1-0.2-15.7-0.8-22.8-1.5v198.4h-93V236.5H1916
		c24.5,0,46,1.1,64.3,3.2c18.3,2.2,34.7,5.4,49.1,9.7c34.6,10.6,61.3,27.6,80.1,50.8c18.7,23.3,28.1,52.9,28.1,88.8
		c0,24.5-5.1,46.6-15.2,66.2c-10.1,19.6-24.9,36.2-44.4,49.9c-19.5,13.7-43.3,24.2-71.3,31.5C1978.6,543.9,1946.4,547.6,1910,547.6z
		 M1862.5,467.5c5.3,0.8,12.1,1.3,20.3,1.7c8.2,0.4,16.8,0.6,25.6,0.6c25,0,46-2,63-6.1c16.9-4,30.6-9.7,41-16.9
		c10.4-7.2,17.8-15.9,22.4-26.2c4.6-10.2,6.8-21.4,6.8-33.6c0-14.9-3.4-27.8-10.2-38.7c-6.8-10.9-18.7-19.3-35.7-25.4
		c-8.9-3-19.8-5.2-32.8-6.6c-13-1.4-29-2.1-48-2.1h-52.4V467.5z"/>
	<path id="XMLID_25_" class="st2" d="M2236.2,744.1V236.5h93v231.1h1.5l191.6-231.1h115.3L2425.9,488l229.2,256.1H2536L2330.7,515
		h-1.5v229.2H2236.2z"/>
	<path id="XMLID_27_" class="st2" d="M3118,598.4c0-12.9-3.2-23.3-9.5-31.3c-6.3-8-14.9-14.5-25.8-19.5
		c-10.9-5.1-23.1-9.2-36.6-12.3c-13.5-3.2-27.8-6.3-42.7-9.3c-19.7-4.3-38.6-9.4-56.5-15.4c-18-5.9-33.8-14.2-47.4-24.7
		c-13.7-10.5-24.5-23.8-32.6-40c-8.1-16.2-12.1-36.4-12.1-60.7c0-26.8,4.7-50.1,14-70c9.4-19.9,22.1-36.3,38.1-49.3
		c16.1-13,34.9-22.8,56.5-29.2c21.6-6.4,46-9.7,73-9.7c27.1,0,54.3,2.7,81.6,8s50.8,12.1,70.6,20.5v79.7
		c-26.3-10.4-51.5-17.9-75.7-22.6c-24.2-4.7-46.9-7-68.1-7c-30.6,0-54.2,5.6-70.8,16.7c-16.6,11.1-24.9,27.8-24.9,50.1
		c0,12.9,2.7,23.5,8.2,31.9c5.4,8.3,12.8,15.2,22.2,20.7c9.4,5.4,20.1,9.8,32.2,13.1c12.1,3.3,25,6.3,38.7,9.1
		c21.5,4.6,42,9.8,61.7,15.7c19.6,5.9,37,14.2,52.2,24.9s27.2,24.5,36,41.5c8.8,17.1,13.3,38.9,13.3,65.4c0,27.3-5.1,51-15.2,70.9
		c-10.1,20-24.5,36.5-43.1,49.5c-18.6,13-41.2,22.7-67.7,29s-55.6,9.5-87.3,9.5c-27.6,0-54.7-2.7-81.4-8.2
		c-26.7-5.4-48.9-13.1-66.6-23V644c25,10.9,49.4,18.8,73.2,23.7c23.8,4.9,48.3,7.4,73.6,7.4c14.7,0,29.1-1.2,43.3-3.6
		c14.2-2.4,26.9-6.5,38.1-12.3c11.3-5.8,20.3-13.7,27.1-23.7C3114.5,625.4,3118,613.1,3118,598.4z"/>
	<path id="XMLID_43_" class="st2" d="M3563.7,305.5c-25.3,0-48.6,4.2-70,12.5c-21.4,8.3-39.7,20.5-55,36.4
		c-15.3,15.9-27.3,35.6-35.9,59c-8.6,23.4-12.9,50.1-12.9,80.2c0,29.8,3.9,56.1,11.8,78.7c7.8,22.6,19.1,41.5,33.8,56.7
		c14.7,15.2,32.6,26.6,53.7,34.3c21.1,7.7,45.1,11.6,71.9,11.6c19.2,0,38.8-1.5,58.8-4.6c20-3,38.7-7.5,56.2-13.3v80.1
		c-17.7,5.1-36.8,9-57.3,12c-20.5,2.9-41.7,4.4-63.7,4.4c-43,0-80.8-6.1-113.4-18.4c-32.6-12.3-59.9-29.6-81.8-52
		c-21.9-22.4-38.3-49.2-49.3-80.4c-11-31.2-16.5-65.7-16.5-103.4c0-38.7,5.9-74.6,17.6-107.7c11.8-33.1,28.7-61.8,50.8-86.1
		c22.1-24.3,49.8-43.4,83.1-57.3c33.3-13.9,70.9-21,112.9-21.2c21.5,0,41.9,1.5,61.1,4.4c19.2,2.9,36.5,7,52,12.3v78.9
		c-20.2-6.3-39.1-10.7-56.5-13.3C3597.5,306.8,3580.4,305.5,3563.7,305.5z"/>
	<path id="XMLID_45_" class="st2" d="M4061.5,614.7h-191.2l-49.7,129.4h-99L3923,236.5h85l201.5,507.6h-98.3L4061.5,614.7z
		 M3965.1,358.6c-17.7,53.1-33.6,97.5-47.5,133.1l-17.4,45.2h131.2l-17.4-45.2c-13.8-36-29.6-80.3-47.5-133.1H3965.1z"/>
	<path id="XMLID_48_" class="st2" d="M4546,472.5c36.4,51.9,66,97.9,88.8,138.1h2.3c-3-66-4.6-114.1-4.6-144.2V236.5h93v507.6h-97.5
		l-165.4-233.7c-29.1-40.5-59.2-87.4-90.3-140.8h-2.3c3,62.2,4.6,110.4,4.6,144.5v229.9h-93V236.5h97.5L4546,472.5z"/>
</g>
</svg>
