<?xml version="1.0" encoding="utf-8"?>
<!-- Generator: Adobe Illustrator 19.0.0, SVG Export Plug-In . SVG Version: 6.00 Build 0)  -->
<svg version="1.1" xmlns="http://www.w3.org/2000/svg" xmlns:xlink="http://www.w3.org/1999/xlink" x="0px" y="0px"
	 viewBox="0 0 1024 1024" style="enable-background:new 0 0 1024 1024;" xml:space="preserve">
<style type="text/css">
	.st0{fill:#C1203D;}
	.st1{fill:#FFFFFF;}
	.st2{display:none;}
	.st3{display:inline;fill:#6FBF5F;}
	.st4{display:inline;}
</style>
<g id="Layer_1">
	<path id="XMLID_1_" class="st0" d="M933.6,945.6H90.4c-6.6,0-12-5.4-12-12V90.4c0-6.6,5.4-12,12-12h843.1c6.6,0,12,5.4,12,12v843.1
		C945.6,940.2,940.2,945.6,933.6,945.6z"/>
	<g id="XMLID_2_">
		<path id="XMLID_3_" class="st1" d="M233.5,157.4L513.2,437l269-269l71.4,71.4l-269,269l282.1,282.1l-76.2,76.2L508.4,584.6
			l-269,269l-71.4-71.4l269-269L157.4,233.5L233.5,157.4z"/>
	</g>
</g>
<g id="Layer_2" class="st2">
	<path id="XMLID_6_" class="st3" d="M933.6,945.6H90.4c-6.6,0-12-5.4-12-12V90.4c0-6.6,5.4-12,12-12h843.1c6.6,0,12,5.4,12,12v843.1
		C945.6,940.2,940.2,945.6,933.6,945.6z"/>
	<g id="XMLID_5_" class="st4">
		<polygon id="XMLID_7_" class="st1" points="870.5,310.3 817.4,257.2 417.5,657.1 210.1,449.7 153.5,506.3 414,766.8 		"/>
	</g>
</g>
</svg>
